<svg width="172" height="136" viewBox="0 0 172 136" fill="none" xmlns="http://www.w3.org/2000/svg">
<rect x="8.41602" y="65.0181" width="9.52357" height="9.52357" transform="rotate(12.7632 8.41602 65.0181)" fill="#735151"/>
<rect x="6.31177" y="74.3062" width="9.52357" height="9.52357" transform="rotate(12.7632 6.31177 74.3062)" fill="#735151"/>
<rect x="58.1919" y="17.7039" width="85.7122" height="85.7122" transform="rotate(12.7632 58.1919 17.7039)" fill="#FFE397"/>
<rect x="44.6956" y="34.1763" width="9.52357" height="47.6179" transform="rotate(12.7632 44.6956 34.1763)" fill="#FFE397"/>
<rect x="55.7285" y="114.794" width="9.52357" height="47.6179" transform="rotate(-77.2368 55.7285 114.794)" fill="#FFE397"/>
<rect x="76.7683" y="21.9124" width="9.52357" height="47.6179" transform="rotate(-77.2368 76.7683 21.9124)" fill="#FFE397"/>
<rect x="137.578" y="55.2163" width="9.52357" height="47.6179" transform="rotate(12.7632 137.578 55.2163)" fill="#FFE397"/>
<rect x="31.1995" y="50.6492" width="9.52357" height="9.52357" transform="rotate(12.7632 31.1995 50.6492)" fill="#735151"/>
<rect x="99.1936" y="95.3457" width="9.52357" height="9.52357" transform="rotate(12.7632 99.1936 95.3457)" fill="#EED592"/>
<rect x="87.8013" y="102.53" width="9.52357" height="9.52357" transform="rotate(12.7632 87.8013 102.53)" fill="#EED592"/>
<rect x="121.978" y="80.9773" width="9.52357" height="9.52357" transform="rotate(12.7632 121.978 80.9773)" fill="#EED592"/>
<rect x="110.586" y="88.1614" width="9.52357" height="9.52357" transform="rotate(12.7632 110.586 88.1614)" fill="#EED592"/>
<rect x="143.89" y="27.3516" width="9.52357" height="9.52357" transform="rotate(12.7632 143.89 27.3516)" fill="#735151"/>
<rect x="153.178" y="29.4556" width="9.52357" height="9.52357" transform="rotate(12.7632 153.178 29.4556)" fill="#735151"/>
<rect x="160.363" y="40.8481" width="9.52357" height="9.52357" transform="rotate(12.7632 160.363 40.8481)" fill="#735151"/>
<rect x="19.8074" y="57.8335" width="9.52357" height="9.52357" transform="rotate(12.7632 19.8074 57.8335)" fill="#735151"/>
<rect x="13.4951" y="85.698" width="9.52357" height="9.52357" transform="rotate(12.7632 13.4951 85.698)" fill="#735151"/>
<rect x="22.7837" y="87.8022" width="9.52357" height="9.52357" transform="rotate(12.7632 22.7837 87.8022)" fill="#735151"/>
<rect x="34.1758" y="80.6179" width="9.52357" height="9.52357" transform="rotate(12.7632 34.1758 80.6179)" fill="#735151"/>
<rect x="45.5679" y="73.4336" width="9.52357" height="9.52357" transform="rotate(12.7632 45.5679 73.4336)" fill="#735151"/>
<rect x="54.8562" y="75.5376" width="9.52357" height="9.52357" transform="rotate(12.7632 54.8562 75.5376)" fill="#735151"/>
<rect x="75.5369" y="70.4573" width="9.52357" height="9.52357" transform="rotate(12.7632 75.5369 70.4573)" fill="#735151"/>
<rect x="96.2173" y="65.377" width="9.52357" height="9.52357" transform="rotate(12.7632 96.2173 65.377)" fill="#735151"/>
<rect x="105.506" y="67.4812" width="9.52357" height="9.52357" transform="rotate(12.7632 105.506 67.4812)" fill="#735151"/>
<rect x="24.8875" y="78.5142" width="9.52357" height="9.52357" transform="rotate(12.7632 24.8875 78.5142)" fill="#735151"/>
<rect x="66.2485" y="68.353" width="9.52357" height="9.52357" transform="rotate(12.7632 66.2485 68.353)" fill="#735151"/>
<rect x="86.9292" y="63.2729" width="9.52357" height="9.52357" transform="rotate(12.7632 86.9292 63.2729)" fill="#735151"/>
<rect x="116.898" y="60.2966" width="9.52357" height="9.52357" transform="rotate(12.7632 116.898 60.2966)" fill="#735151"/>
<rect x="126.186" y="62.4006" width="9.52357" height="9.52357" transform="rotate(12.7632 126.186 62.4006)" fill="#735151"/>
<rect x="137.578" y="55.2163" width="9.52357" height="9.52357" transform="rotate(12.7632 137.578 55.2163)" fill="#735151"/>
<rect x="148.97" y="48.032" width="9.52357" height="9.52357" transform="rotate(12.7632 148.97 48.032)" fill="#735151"/>
<rect x="84.825" y="72.5613" width="9.52357" height="9.52357" transform="rotate(12.7632 84.825 72.5613)" fill="#735151"/>
<rect x="64.1448" y="77.6416" width="9.52357" height="9.52357" transform="rotate(12.7632 64.1448 77.6416)" fill="#735151"/>
</svg>
