<svg width="472" height="378" viewBox="0 0 472 378" fill="none" xmlns="http://www.w3.org/2000/svg">
<path d="M33.1933 141.672V128.752H19.8173V56.096H33.1933V43.024H79.4013V56.096H92.9293V128.752H79.4013V141.672H33.1933ZM39.1213 121H73.4733V63.848H39.1213V121ZM135.186 141.672V63.848H127.738V76.768H108.434V56.096H121.81V43.024H168.018V56.096H181.546V76.768H162.09V63.848H154.642V141.672H135.186ZM193.934 141.672V69.016H207.31V56.096H220.686V43.024H240.142V56.096H253.518V69.016H267.046V141.672H247.59V115.68H213.238V141.672H193.934ZM213.238 94.856H247.59V76.768H234.214V63.848H226.614V76.768H213.238V94.856ZM285.52 141.672V56.096H298.896V43.024H318.2V63.848H304.824V82.088H312.272V69.016H325.8V56.096H339.176V43.024H358.632V63.848H345.104V76.768H331.728V89.688H318.2V94.856H331.728V107.928H345.104V121H358.632V141.672H339.176V128.752H325.8V115.68H312.272V102.608H304.824V141.672H285.52ZM390.482 141.672V128.752H377.106V43.024H396.41V121H430.762V43.024H450.218V128.752H436.69V141.672H390.482ZM94.1844 323.672V238.096H107.56V225.024H126.864V238.096H140.392V264.088H147.84V238.096H161.368V225.024H180.824V238.096H194.048V323.672H174.896V245.848H167.296V271.688H153.768V310.752H134.464V271.688H120.936V245.848H113.488V323.672H94.1844ZM211.153 323.672V251.016H224.529V238.096H237.905V225.024H257.361V238.096H270.737V251.016H284.265V323.672H264.809V297.68H230.457V323.672H211.153ZM230.457 276.856H264.809V258.768H251.433V245.848H243.833V258.768H230.457V276.856ZM302.739 323.672V238.096H316.115V225.024H362.323V238.096H375.851V284.608H362.323V297.68H322.043V323.672H302.739ZM322.043 276.856H356.395V245.848H322.043V276.856Z" fill="#B8EFFD"/>
<path d="M37.8826 150.839V138.089H24.6826V66.3894H37.8826V53.4895H83.4826V66.3894H96.8326V138.089H83.4826V150.839H37.8826ZM43.7326 130.439H77.6326V74.0394H43.7326V130.439ZM138.534 150.839V74.0394H131.184V86.7895H112.134V66.3894H125.334V53.4895H170.934V66.3894H184.284V86.7895H165.084V74.0394H157.734V150.839H138.534ZM196.509 150.839V79.1395H209.709V66.3894H222.909V53.4895H242.109V66.3894H255.309V79.1395H268.659V150.839H249.459V125.189H215.559V150.839H196.509ZM215.559 104.639H249.459V86.7895H236.259V74.0394H228.759V86.7895H215.559V104.639ZM286.89 150.839V66.3894H300.09V53.4895H319.14V74.0394H305.94V92.0395H313.29V79.1395H326.64V66.3894H339.84V53.4895H359.04V74.0394H345.69V86.7895H332.49V99.5394H319.14V104.639H332.49V117.539H345.69V130.439H359.04V150.839H339.84V138.089H326.64V125.189H313.29V112.289H305.94V150.839H286.89ZM390.47 150.839V138.089H377.27V53.4895H396.32V130.439H430.22V53.4895H449.42V138.089H436.07V150.839H390.47ZM98.0712 330.839V246.389H111.271V233.489H130.321V246.389H143.671V272.039H151.021V246.389H164.371V233.489H183.571V246.389H196.621V330.839H177.721V254.039H170.221V279.539H156.871V318.089H137.821V279.539H124.471V254.039H117.121V330.839H98.0712ZM213.501 330.839V259.139H226.701V246.389H239.901V233.489H259.101V246.389H272.301V259.139H285.651V330.839H266.451V305.189H232.551V330.839H213.501ZM232.551 284.639H266.451V266.789H253.251V254.039H245.751V266.789H232.551V284.639ZM303.882 330.839V246.389H317.082V233.489H362.682V246.389H376.032V292.289H362.682V305.189H322.932V330.839H303.882ZM322.932 284.639H356.832V254.039H322.932V284.639Z" fill="#D1C1FF"/>
</svg>
